<svg width="345" height="137" viewBox="0 0 345 137" fill="none" xmlns="http://www.w3.org/2000/svg">
<g filter="url(#filter0_d)">
<path d="M38.234 77H54.554V46.604L80.972 4.57999H62.102L46.292 30.692L30.686 4.57999H11.816L38.234 46.502V77Z" fill="#4DAEE4"/>
<path d="M72.357 77H89.289L95.715 61.7H125.703L132.129 77H149.061L118.053 4.57999H103.365L72.357 77ZM101.631 47.624L110.709 25.796L119.787 47.624H101.631Z" fill="#4DAEE4"/>
<path d="M162.393 77H178.714V20.084H197.38V4.57999H143.932V20.084H162.393V77Z" fill="#4DAEE4"/>
<path d="M203.638 77H259.534V61.496H225.568L258.922 15.698V4.57999H204.148V20.084H236.89L203.638 65.882V77Z" fill="#4DAEE4"/>
<path d="M290.744 77H307.064V46.604L333.482 4.57999H314.612L298.802 30.692L283.196 4.57999H264.326L290.744 46.502V77Z" fill="#4DAEE4"/>
<path fill-rule="evenodd" clip-rule="evenodd" d="M34.234 81V47.6572L4.56733 0.579987H32.9553L46.3143 22.9322L59.8478 0.579987H88.2113L58.554 47.7568V81H34.234ZM54.554 46.604L80.972 4.57999H62.102L46.292 30.692L30.686 4.57999H11.816L38.234 46.502V77H54.554V46.604ZM66.2931 81L100.726 0.579987H120.692L155.125 81H129.471L123.045 65.7H98.3735L91.9475 81H66.2931ZM95.715 61.7H125.703L132.129 77H149.061L118.053 4.57999H103.365L72.357 77H89.289L95.715 61.7ZM101.631 47.624H119.787L110.709 25.796L101.631 47.624ZM107.627 43.624H113.791L110.709 36.2126L107.627 43.624ZM158.393 81V24.084H139.931V0.579987H285.465L298.824 22.9322L312.358 0.579987H340.721L311.064 47.7568V81H286.744V47.6572L262.922 9.85535V17.0002L233.43 57.496H263.534V81H199.638V64.583L229.043 24.084H182.713V81H158.393ZM236.89 20.084L203.638 65.882V77H259.534V61.496H225.568L258.922 15.698V4.57999H204.148V20.084H236.89ZM290.744 46.502V77H307.064V46.604L333.482 4.57999H314.612L298.802 30.692L283.196 4.57999H264.326L290.744 46.502ZM178.713 77H162.393V20.084H143.931V4.57999H197.379V20.084H178.713V77Z" fill="white"/>
<path d="M48.202 128.43L54.824 114.068L61.446 128.43L70.476 106.5H66.391L61.102 119.916L54.824 106.07L48.589 119.959L43.257 106.5H39.172L48.202 128.43Z" fill="white"/>
<path d="M78.6601 99.448C78.6601 97.986 77.4991 96.825 76.0371 96.825C74.5751 96.825 73.3711 97.986 73.3711 99.448C73.3711 100.867 74.5751 102.071 76.0371 102.071C77.4991 102.071 78.6601 100.867 78.6601 99.448ZM74.1451 128H77.8431V106.5H74.1451V128Z" fill="white"/>
<path d="M87.0461 128H90.7441V109.897H97.3661V106.5H90.7441V98.932L87.0461 101.125V106.5H82.0581V109.897H87.0461V128Z" fill="white"/>
<path d="M101.398 128H105.096V113.724C105.956 111.23 108.02 109.467 111.03 109.467C114.341 109.467 116.405 111.617 116.405 115.358V128H120.06V114.799C120.06 109.424 116.749 106.07 111.89 106.07C109.181 106.07 106.601 107.059 105.096 109.209V97.47H101.398V128Z" fill="white"/>
<path d="M150.894 121.98C150.894 118.669 148.873 116.691 144.917 115.53L142.595 114.842C140.144 114.068 139.284 113.251 139.327 111.789C139.327 109.854 141.348 109.252 143.799 109.252C145.648 109.252 147.884 109.768 149.088 110.542V107.016C147.755 106.414 145.562 106.07 143.756 106.07C138.94 106.07 135.672 108.134 135.672 111.918C135.672 115.186 137.65 117.078 141.219 118.153L143.498 118.841C146.164 119.658 147.196 120.69 147.196 122.238C147.196 124.044 145.519 125.162 142.81 125.162C140.144 125.162 137.392 124.302 136.059 123.442V127.14C137.736 128 140.359 128.43 142.939 128.43C147.927 128.43 150.894 126.194 150.894 121.98Z" fill="white"/>
<path d="M158.055 128H161.753V109.897H168.375V106.5H161.753V98.932L158.055 101.125V106.5H153.067V109.897H158.055V128Z" fill="white"/>
<path d="M190.338 106.5H186.64V120.776C185.737 123.27 183.716 125.033 180.964 125.033C177.782 125.033 175.804 122.883 175.804 119.142V106.5H172.106V119.701C172.106 125.076 175.417 128.43 180.147 128.43C182.555 128.43 185.135 127.441 186.64 125.291V128H190.338V106.5Z" fill="white"/>
<path d="M195.631 117.25C195.631 123.356 200.06 128.43 206.467 128.43C209.262 128.43 211.756 127.484 213.476 125.635V128H217.174V97.47H213.476V108.865C211.756 107.016 209.262 106.07 206.467 106.07C200.06 106.07 195.631 111.144 195.631 117.25ZM213.476 121.464C212.229 123.485 209.95 125.033 206.768 125.033C202.425 125.033 199.458 121.55 199.458 117.25C199.458 112.95 202.425 109.467 206.768 109.467C209.95 109.467 212.229 111.015 213.476 112.993V121.464Z" fill="white"/>
<path d="M222.507 117.25C222.55 124.689 227.71 128.43 233.988 128.43C237.213 128.43 239.019 127.871 240.954 127.011V123.227C239.191 124.302 237.17 125.076 234.203 125.076C230.333 125.076 226.549 123.184 226.377 118.153H242.846C243.19 111.144 239.492 106.07 233.085 106.07C226.721 106.07 222.507 110.714 222.507 117.25ZM232.999 109.295C236.31 109.295 238.503 111.531 238.976 115.186H226.506C227.065 111.058 230.161 109.295 232.999 109.295Z" fill="white"/>
<path d="M247.993 128H251.691V113.724C252.551 111.23 254.615 109.467 257.625 109.467C260.936 109.467 263 111.617 263 115.358V128H266.655V114.799C266.655 109.424 263.344 106.07 258.485 106.07C255.776 106.07 253.196 107.059 251.691 109.209V106.5H247.993V128Z" fill="white"/>
<path d="M275.213 128H278.911V109.897H285.533V106.5H278.911V98.932L275.213 101.125V106.5H270.225V109.897H275.213V128Z" fill="white"/>
<path d="M303.368 121.98C303.368 118.669 301.347 116.691 297.391 115.53L295.069 114.842C292.618 114.068 291.758 113.251 291.801 111.789C291.801 109.854 293.822 109.252 296.273 109.252C298.122 109.252 300.358 109.768 301.562 110.542V107.016C300.229 106.414 298.036 106.07 296.23 106.07C291.414 106.07 288.146 108.134 288.146 111.918C288.146 115.186 290.124 117.078 293.693 118.153L295.972 118.841C298.638 119.658 299.67 120.69 299.67 122.238C299.67 124.044 297.993 125.162 295.284 125.162C292.618 125.162 289.866 124.302 288.533 123.442V127.14C290.21 128 292.833 128.43 295.413 128.43C300.401 128.43 303.368 126.194 303.368 121.98Z" fill="white"/>
</g>
<defs>
<filter id="filter0_d" x="0.567333" y="0.579987" width="344.154" height="135.85" filterUnits="userSpaceOnUse" color-interpolation-filters="sRGB">
<feFlood flood-opacity="0" result="BackgroundImageFix"/>
<feColorMatrix in="SourceAlpha" type="matrix" values="0 0 0 0 0 0 0 0 0 0 0 0 0 0 0 0 0 0 127 0"/>
<feOffset dy="4"/>
<feGaussianBlur stdDeviation="2"/>
<feColorMatrix type="matrix" values="0 0 0 0 0 0 0 0 0 0 0 0 0 0 0 0 0 0 0.43 0"/>
<feBlend mode="normal" in2="BackgroundImageFix" result="effect1_dropShadow"/>
<feBlend mode="normal" in="SourceGraphic" in2="effect1_dropShadow" result="shape"/>
</filter>
</defs>
</svg>
